<?xml version="1.0" encoding="UTF-8" standalone="no"?>
<svg
   xmlns:dc="http://purl.org/dc/elements/1.1/"
   xmlns:cc="http://creativecommons.org/ns#"
   xmlns:rdf="http://www.w3.org/1999/02/22-rdf-syntax-ns#"
   xmlns:svg="http://www.w3.org/2000/svg"
   xmlns="http://www.w3.org/2000/svg"
   xmlns:sodipodi="http://sodipodi.sourceforge.net/DTD/sodipodi-0.dtd"
   xmlns:inkscape="http://www.inkscape.org/namespaces/inkscape"
   sodipodi:docname="hack-a-thon.svg"
   inkscape:version="1.0 (4035a4fb49, 2020-05-01)"
   id="svg8"
   version="1.1"
   viewBox="0 0 97.551873 97.551872"
   height="97.551872mm"
   width="97.551872mm">
  <defs
     id="defs2">
    <inkscape:path-effect
       lpeversion="1"
       is_visible="true"
       id="path-effect994"
       effect="spiro" />
    <inkscape:path-effect
       effect="spiro"
       id="path-effect888"
       is_visible="true"
       lpeversion="1" />
    <inkscape:path-effect
       effect="spiro"
       id="path-effect879"
       is_visible="true"
       lpeversion="1" />
    <inkscape:path-effect
       effect="spiro"
       id="path-effect870"
       is_visible="true"
       lpeversion="1" />
    <inkscape:path-effect
       lpeversion="1"
       is_visible="true"
       id="path-effect851"
       effect="spiro" />
    <filter
       height="1.0000033"
       y="-1.6666665e-06"
       width="1.0000019"
       x="-9.3750003e-07"
       id="filter987"
       style="color-interpolation-filters:sRGB"
       inkscape:collect="always">
      <feGaussianBlur
         id="feGaussianBlur989"
         stdDeviation="0.00013229166"
         inkscape:collect="always" />
    </filter>
    <filter
       height="1.0000284"
       y="-1.4210058e-05"
       width="1.0000174"
       x="-8.7098533e-06"
       id="filter989"
       style="color-interpolation-filters:sRGB"
       inkscape:collect="always">
      <feGaussianBlur
         id="feGaussianBlur991"
         stdDeviation="0.00064208806"
         inkscape:collect="always" />
    </filter>
    <filter
       inkscape:collect="always"
       style="color-interpolation-filters:sRGB"
       id="filter989-7"
       x="-8.7098533e-06"
       width="1.0000174"
       y="-1.4210058e-05"
       height="1.0000284">
      <feGaussianBlur
         inkscape:collect="always"
         stdDeviation="0.00064208806"
         id="feGaussianBlur991-6" />
    </filter>
  </defs>
  <sodipodi:namedview
     inkscape:document-rotation="0"
     inkscape:window-maximized="1"
     inkscape:window-y="-11"
     inkscape:window-x="-11"
     inkscape:window-height="1000"
     inkscape:window-width="1920"
     borderlayer="true"
     inkscape:showpageshadow="false"
     fit-margin-bottom="0"
     fit-margin-right="0"
     fit-margin-left="0"
     fit-margin-top="0"
     showgrid="false"
     inkscape:current-layer="layer4"
     inkscape:document-units="px"
     inkscape:cy="151.76439"
     inkscape:cx="186.36156"
     inkscape:zoom="2.9608156"
     inkscape:pageshadow="2"
     inkscape:pageopacity="0"
     borderopacity="1.0"
     bordercolor="#666666"
     pagecolor="#474747"
     id="base" />
  <metadata
     id="metadata5">
    <rdf:RDF>
      <cc:Work
         rdf:about="">
        <dc:format>image/svg+xml</dc:format>
        <dc:type
           rdf:resource="http://purl.org/dc/dcmitype/StillImage" />
        <dc:title />
      </cc:Work>
    </rdf:RDF>
  </metadata>
  <g
     style="display:none;filter:url(#filter987)"
     transform="translate(-32.054288,-27.693859)"
     id="layer1"
     inkscape:groupmode="layer"
     inkscape:label="Background">
    <path
       inkscape:connector-curvature="0"
       id="rect5735"
       d="M -146.84374,-4.3604197 H 191.82291 V 186.13958 h -338.66665 z"
       style="opacity:1;fill:#ffffff;fill-opacity:1;fill-rule:nonzero;stroke:none;stroke-width:3.43958;stroke-linecap:round;stroke-linejoin:round;stroke-miterlimit:4;stroke-dasharray:none;stroke-dashoffset:0;stroke-opacity:1" />
    <rect
       y="45.685799"
       x="68.799332"
       height="2.7361717"
       width="6.7351923"
       id="rect996"
       style="fill:#f7f7ff;fill-opacity:1;stroke:#f7f7ff;stroke-width:3.175;stroke-miterlimit:4;stroke-dasharray:none;stroke-opacity:1" />
  </g>
  <g
     transform="translate(-178.89803,-32.054279)"
     style="display:inline"
     inkscape:label="Layer 3"
     id="layer4"
     inkscape:groupmode="layer">
    <circle
       r="47.897812"
       cy="80.830215"
       cx="227.67397"
       id="path903"
       style="fill:#00b1fc;fill-opacity:1;stroke:#00b1fc;stroke-width:1.75625;stroke-miterlimit:4;stroke-dasharray:none;stroke-opacity:1" />
  </g>
  <g
     inkscape:label="Layer 4"
     id="layer6"
     inkscape:groupmode="layer">
    <g
       transform="matrix(0.95026041,0,0,0.95026041,2.173294,4.8868736)"
       id="g1807">
      <path
         style="display:inline;opacity:0.999;fill:#ffffff;fill-opacity:1;stroke:#ffffff;stroke-width:0.0368809;stroke-linecap:butt;stroke-linejoin:miter;stroke-miterlimit:4;stroke-dasharray:none;stroke-opacity:1;filter:url(#filter989)"
         d="m 89.07056,71.380368 c 1.015319,1.25e-4 1.09054,-0.932442 1.07326,-1.564664 C 90.12769,69.22633 89.778036,68.41392 89.065128,68.41392 H 9.1990702 c -1.753618,0 -1.607341,2.95537 0,2.955584 z"
         id="path1746"
         sodipodi:nodetypes="sassss" />
      <path
         style="display:inline;opacity:0.999;fill:#ffffff;fill-opacity:1;stroke:#ffffff;stroke-width:0.0368809;stroke-linecap:butt;stroke-linejoin:miter;stroke-miterlimit:4;stroke-dasharray:none;stroke-opacity:1;filter:url(#filter989)"
         d="M 13.697648,68.41392 V 23.515068 c -0.0594,-1.630966 0.669254,-2.569413 2.520941,-2.520943 h 65.933064 c 1.509409,-0.02143 2.478423,0.597612 2.426568,2.426569 V 68.41392"
         id="path1754"
         sodipodi:nodetypes="cccccc" />
      <path
         sodipodi:nodetypes="cccccc"
         id="path1754-5"
         d="M 14.954671,68.417423 V 24.545529 c -0.05738,-1.593663 0.646537,-2.510645 2.435372,-2.463284 h 63.69505 c 1.458178,-0.02094 2.394299,0.583944 2.344206,2.371068 v 43.96411"
         style="display:inline;opacity:0.999;fill:#00b1fc;fill-opacity:0.37619;stroke:#ffffff;stroke-width:0.0368809;stroke-linecap:butt;stroke-linejoin:miter;stroke-miterlimit:4;stroke-dasharray:none;stroke-opacity:1;filter:url(#filter989)" />
      <path
         style="display:inline;opacity:0.999;fill:#598282;fill-opacity:1;stroke:#598282;stroke-width:0.0368809;stroke-linecap:butt;stroke-linejoin:miter;stroke-miterlimit:4;stroke-dasharray:none;stroke-opacity:1;filter:url(#filter989)"
         d="m 16.872512,25.478456 h 64.369002 v 41.5446 H 16.859691 Z"
         id="path1786"
         sodipodi:nodetypes="ccccc" />
    </g>
    <g
       transform="matrix(0.47264777,0,0,0.47264777,-32.521175,8.6301786)"
       style="display:inline;opacity:0.998"
       id="g1857">
      <path
         id="path1107-4"
         d="m 161.15991,100.30456 c -0.0973,0.7257 -0.0145,1.48531 -0.042,2.22416 0.22712,0.33246 0.78678,0.0799 1.15096,0.15877 15.69861,0 31.39722,0 47.09583,0 0.33246,-0.22712 0.08,-0.78678 0.15878,-1.15096 -0.0302,-0.411 0.063,-0.84791 -0.0513,-1.24127 -1.05636,-0.0977 -2.14682,-0.0142 -3.21634,-0.042 -14.99306,0 -29.98611,0 -44.97917,0 l -0.0606,0.0266 z"
         style="display:inline;opacity:1;fill:#4c5454;fill-opacity:1;stroke:#4c5454;stroke-width:0.0198438;stroke-miterlimit:4;stroke-dasharray:none;stroke-opacity:1;filter:url(#filter989)" />
      <path
         id="path1107-8"
         d="m 163.97109,105.3968 c -0.0973,0.7257 -0.0145,1.4853 -0.042,2.22415 0.22712,0.33246 0.78679,0.08 1.15097,0.15878 15.69861,0 31.39722,0 47.09583,0 0.33246,-0.22713 0.08,-0.78679 0.15878,-1.15097 -0.0302,-0.41099 0.063,-0.8479 -0.0513,-1.24126 -1.05636,-0.0977 -2.14682,-0.0142 -3.21634,-0.042 -14.99306,0 -29.98612,0 -44.97917,0 l -0.0606,0.0266 z"
         style="display:inline;opacity:0.998;fill:#4c5454;fill-opacity:1;stroke:#4c5454;stroke-width:0.0198438;stroke-miterlimit:4;stroke-dasharray:none;stroke-opacity:1;filter:url(#filter989)" />
      <g
         style="opacity:1;fill:#ff715b;fill-opacity:1"
         id="g26"
         transform="translate(10.85829,9.8535054)">
        <path
           sodipodi:nodetypes="cccccccccccc"
           id="path30"
           d="m 121.29492,46.037109 v 0.132813 2.646484 h 14.50196 v -2.779297 z m 0.26367,0.265625 h 0.39779 13.57682 v 2.248047 h -13.97461 z"
           style="color:#000000;font-style:normal;font-variant:normal;font-weight:normal;font-stretch:normal;font-size:medium;line-height:normal;font-family:sans-serif;font-variant-ligatures:normal;font-variant-position:normal;font-variant-caps:normal;font-variant-numeric:normal;font-variant-alternates:normal;font-variant-east-asian:normal;font-feature-settings:normal;font-variation-settings:normal;text-indent:0;text-align:start;text-decoration:none;text-decoration-line:none;text-decoration-style:solid;text-decoration-color:#000000;letter-spacing:normal;word-spacing:normal;text-transform:none;writing-mode:lr-tb;direction:ltr;text-orientation:mixed;dominant-baseline:auto;baseline-shift:baseline;text-anchor:start;white-space:normal;shape-padding:0;shape-margin:0;inline-size:0;clip-rule:nonzero;display:inline;overflow:visible;visibility:visible;isolation:auto;mix-blend-mode:normal;color-interpolation:sRGB;color-interpolation-filters:linearRGB;solid-color:#000000;solid-opacity:1;vector-effect:none;fill:#ff715b;fill-opacity:1;fill-rule:evenodd;stroke:none;stroke-width:0.264583;stroke-linecap:butt;stroke-linejoin:miter;stroke-miterlimit:4;stroke-dasharray:none;stroke-dashoffset:0;stroke-opacity:1;color-rendering:auto;image-rendering:auto;shape-rendering:auto;text-rendering:auto;enable-background:accumulate;stop-color:#000000;stop-opacity:1" />
        <path
           style="color:#000000;font-style:normal;font-variant:normal;font-weight:normal;font-stretch:normal;font-size:medium;line-height:normal;font-family:sans-serif;font-variant-ligatures:normal;font-variant-position:normal;font-variant-caps:normal;font-variant-numeric:normal;font-variant-alternates:normal;font-variant-east-asian:normal;font-feature-settings:normal;font-variation-settings:normal;text-indent:0;text-align:start;text-decoration:none;text-decoration-line:none;text-decoration-style:solid;text-decoration-color:#000000;letter-spacing:normal;word-spacing:normal;text-transform:none;writing-mode:lr-tb;direction:ltr;text-orientation:mixed;dominant-baseline:auto;baseline-shift:baseline;text-anchor:start;white-space:normal;shape-padding:0;shape-margin:0;inline-size:0;clip-rule:nonzero;display:inline;overflow:visible;visibility:visible;opacity:1;isolation:auto;mix-blend-mode:normal;color-interpolation:sRGB;color-interpolation-filters:linearRGB;solid-color:#000000;solid-opacity:1;vector-effect:none;fill:#ff715b;fill-opacity:1;fill-rule:evenodd;stroke:none;stroke-width:0.264583;stroke-linecap:butt;stroke-linejoin:miter;stroke-miterlimit:4;stroke-dasharray:none;stroke-dashoffset:0;stroke-opacity:1;color-rendering:auto;image-rendering:auto;shape-rendering:auto;text-rendering:auto;enable-background:accumulate;stop-color:#000000;stop-opacity:1"
           d="m 126.19824,50.898632 v 0.132813 2.646484 h 14.50196 v -2.779297 z m 0.26367,0.265625 h 0.39779 13.57682 v 2.248047 h -13.97461 z"
           id="path30-3"
           sodipodi:nodetypes="cccccccccccc" />
        <path
           style="color:#000000;font-style:normal;font-variant:normal;font-weight:normal;font-stretch:normal;font-size:medium;line-height:normal;font-family:sans-serif;font-variant-ligatures:normal;font-variant-position:normal;font-variant-caps:normal;font-variant-numeric:normal;font-variant-alternates:normal;font-variant-east-asian:normal;font-feature-settings:normal;font-variation-settings:normal;text-indent:0;text-align:start;text-decoration:none;text-decoration-line:none;text-decoration-style:solid;text-decoration-color:#000000;letter-spacing:normal;word-spacing:normal;text-transform:none;writing-mode:lr-tb;direction:ltr;text-orientation:mixed;dominant-baseline:auto;baseline-shift:baseline;text-anchor:start;white-space:normal;shape-padding:0;shape-margin:0;inline-size:0;clip-rule:nonzero;display:inline;overflow:visible;visibility:visible;opacity:1;isolation:auto;mix-blend-mode:normal;color-interpolation:sRGB;color-interpolation-filters:linearRGB;solid-color:#000000;solid-opacity:1;vector-effect:none;fill:#ff715b;fill-opacity:1;fill-rule:evenodd;stroke:none;stroke-width:0.264583;stroke-linecap:butt;stroke-linejoin:miter;stroke-miterlimit:4;stroke-dasharray:none;stroke-dashoffset:0;stroke-opacity:1;color-rendering:auto;image-rendering:auto;shape-rendering:auto;text-rendering:auto;enable-background:accumulate;stop-color:#000000;stop-opacity:1"
           d="m 134.56223,56.280433 v 0.132813 2.646484 h 14.50196 v -2.779297 z m 0.26367,0.265625 h 0.39779 13.57682 v 2.248047 H 134.8259 Z"
           id="path30-8"
           sodipodi:nodetypes="cccccccccccc" />
        <path
           style="color:#000000;font-style:normal;font-variant:normal;font-weight:normal;font-stretch:normal;font-size:medium;line-height:normal;font-family:sans-serif;font-variant-ligatures:normal;font-variant-position:normal;font-variant-caps:normal;font-variant-numeric:normal;font-variant-alternates:normal;font-variant-east-asian:normal;font-feature-settings:normal;font-variation-settings:normal;text-indent:0;text-align:start;text-decoration:none;text-decoration-line:none;text-decoration-style:solid;text-decoration-color:#000000;letter-spacing:normal;word-spacing:normal;text-transform:none;writing-mode:lr-tb;direction:ltr;text-orientation:mixed;dominant-baseline:auto;baseline-shift:baseline;text-anchor:start;white-space:normal;shape-padding:0;shape-margin:0;inline-size:0;clip-rule:nonzero;display:inline;overflow:visible;visibility:visible;opacity:1;isolation:auto;mix-blend-mode:normal;color-interpolation:sRGB;color-interpolation-filters:linearRGB;solid-color:#000000;solid-opacity:1;vector-effect:none;fill:#ff715b;fill-opacity:1;fill-rule:evenodd;stroke:none;stroke-width:0.264583;stroke-linecap:butt;stroke-linejoin:miter;stroke-miterlimit:4;stroke-dasharray:none;stroke-dashoffset:0;stroke-opacity:1;color-rendering:auto;image-rendering:auto;shape-rendering:auto;text-rendering:auto;enable-background:accumulate;stop-color:#000000;stop-opacity:1"
           d="m 142.88767,62.220499 v 0.132813 2.646484 h 14.50196 v -2.779297 z m 0.26367,0.265625 h 0.39779 13.57682 v 2.248047 h -13.97461 z"
           id="path30-5"
           sodipodi:nodetypes="cccccccccccc" />
        <path
           style="color:#000000;font-style:normal;font-variant:normal;font-weight:normal;font-stretch:normal;font-size:medium;line-height:normal;font-family:sans-serif;font-variant-ligatures:normal;font-variant-position:normal;font-variant-caps:normal;font-variant-numeric:normal;font-variant-alternates:normal;font-variant-east-asian:normal;font-feature-settings:normal;font-variation-settings:normal;text-indent:0;text-align:start;text-decoration:none;text-decoration-line:none;text-decoration-style:solid;text-decoration-color:#000000;letter-spacing:normal;word-spacing:normal;text-transform:none;writing-mode:lr-tb;direction:ltr;text-orientation:mixed;dominant-baseline:auto;baseline-shift:baseline;text-anchor:start;white-space:normal;shape-padding:0;shape-margin:0;inline-size:0;clip-rule:nonzero;display:inline;overflow:visible;visibility:visible;opacity:1;isolation:auto;mix-blend-mode:normal;color-interpolation:sRGB;color-interpolation-filters:linearRGB;solid-color:#000000;solid-opacity:1;vector-effect:none;fill:#ff715b;fill-opacity:1;fill-rule:evenodd;stroke:none;stroke-width:0.264583;stroke-linecap:butt;stroke-linejoin:miter;stroke-miterlimit:4;stroke-dasharray:none;stroke-dashoffset:0;stroke-opacity:1;color-rendering:auto;image-rendering:auto;shape-rendering:auto;text-rendering:auto;enable-background:accumulate;stop-color:#000000;stop-opacity:1"
           d="m 135.54445,67.552526 v 0.132813 2.646484 h 14.50196 v -2.779297 z m 0.26367,0.265625 h 0.39779 13.57682 v 2.248047 h -13.97461 z"
           id="path30-2"
           sodipodi:nodetypes="cccccccccccc" />
        <path
           style="color:#000000;font-style:normal;font-variant:normal;font-weight:normal;font-stretch:normal;font-size:medium;line-height:normal;font-family:sans-serif;font-variant-ligatures:normal;font-variant-position:normal;font-variant-caps:normal;font-variant-numeric:normal;font-variant-alternates:normal;font-variant-east-asian:normal;font-feature-settings:normal;font-variation-settings:normal;text-indent:0;text-align:start;text-decoration:none;text-decoration-line:none;text-decoration-style:solid;text-decoration-color:#000000;letter-spacing:normal;word-spacing:normal;text-transform:none;writing-mode:lr-tb;direction:ltr;text-orientation:mixed;dominant-baseline:auto;baseline-shift:baseline;text-anchor:start;white-space:normal;shape-padding:0;shape-margin:0;inline-size:0;clip-rule:nonzero;display:inline;overflow:visible;visibility:visible;opacity:1;isolation:auto;mix-blend-mode:normal;color-interpolation:sRGB;color-interpolation-filters:linearRGB;solid-color:#000000;solid-opacity:1;vector-effect:none;fill:#ff715b;fill-opacity:1;fill-rule:evenodd;stroke:none;stroke-width:0.264583;stroke-linecap:butt;stroke-linejoin:miter;stroke-miterlimit:4;stroke-dasharray:none;stroke-dashoffset:0;stroke-opacity:1;color-rendering:auto;image-rendering:auto;shape-rendering:auto;text-rendering:auto;enable-background:accumulate;stop-color:#000000;stop-opacity:1"
           d="m 126.65773,73.352274 v 0.132813 2.646485 h 14.50196 v -2.779298 z m 0.26367,0.265625 h 0.39779 13.57682 v 2.248047 H 126.9214 Z"
           id="path30-9"
           sodipodi:nodetypes="cccccccccccc" />
        <path
           style="color:#000000;font-style:normal;font-variant:normal;font-weight:normal;font-stretch:normal;font-size:medium;line-height:normal;font-family:sans-serif;font-variant-ligatures:normal;font-variant-position:normal;font-variant-caps:normal;font-variant-numeric:normal;font-variant-alternates:normal;font-variant-east-asian:normal;font-feature-settings:normal;font-variation-settings:normal;text-indent:0;text-align:start;text-decoration:none;text-decoration-line:none;text-decoration-style:solid;text-decoration-color:#000000;letter-spacing:normal;word-spacing:normal;text-transform:none;writing-mode:lr-tb;direction:ltr;text-orientation:mixed;dominant-baseline:auto;baseline-shift:baseline;text-anchor:start;white-space:normal;shape-padding:0;shape-margin:0;inline-size:0;clip-rule:nonzero;display:inline;overflow:visible;visibility:visible;opacity:1;isolation:auto;mix-blend-mode:normal;color-interpolation:sRGB;color-interpolation-filters:linearRGB;solid-color:#000000;solid-opacity:1;vector-effect:none;fill:#ff715b;fill-opacity:1;fill-rule:evenodd;stroke:none;stroke-width:0.264583;stroke-linecap:butt;stroke-linejoin:miter;stroke-miterlimit:4;stroke-dasharray:none;stroke-dashoffset:0;stroke-opacity:1;color-rendering:auto;image-rendering:auto;shape-rendering:auto;text-rendering:auto;enable-background:accumulate;stop-color:#000000;stop-opacity:1"
           d="m 122.3287,79.043683 v 0.132813 2.646484 h 14.50196 v -2.779297 z m 0.26367,0.265625 h 0.39779 13.57682 v 2.248047 h -13.97461 z"
           id="path30-6"
           sodipodi:nodetypes="cccccccccccc" />
        <path
           style="color:#000000;font-style:normal;font-variant:normal;font-weight:normal;font-stretch:normal;font-size:medium;line-height:normal;font-family:sans-serif;font-variant-ligatures:normal;font-variant-position:normal;font-variant-caps:normal;font-variant-numeric:normal;font-variant-alternates:normal;font-variant-east-asian:normal;font-feature-settings:normal;font-variation-settings:normal;text-indent:0;text-align:start;text-decoration:none;text-decoration-line:none;text-decoration-style:solid;text-decoration-color:#000000;letter-spacing:normal;word-spacing:normal;text-transform:none;writing-mode:lr-tb;direction:ltr;text-orientation:mixed;dominant-baseline:auto;baseline-shift:baseline;text-anchor:start;white-space:normal;shape-padding:0;shape-margin:0;inline-size:0;clip-rule:nonzero;display:inline;overflow:visible;visibility:visible;opacity:1;isolation:auto;mix-blend-mode:normal;color-interpolation:sRGB;color-interpolation-filters:linearRGB;solid-color:#000000;solid-opacity:1;vector-effect:none;fill:#ff715b;fill-opacity:1;fill-rule:evenodd;stroke:none;stroke-width:0.264583;stroke-linecap:butt;stroke-linejoin:miter;stroke-miterlimit:4;stroke-dasharray:none;stroke-dashoffset:0;stroke-opacity:1;color-rendering:auto;image-rendering:auto;shape-rendering:auto;text-rendering:auto;enable-background:accumulate;stop-color:#000000;stop-opacity:1"
           d="m 125.76829,84.302278 v 0.132813 2.646484 h 14.50196 v -2.779297 z m 0.26367,0.265625 h 0.39779 13.57682 v 2.248047 h -13.97461 z"
           id="path30-1"
           sodipodi:nodetypes="cccccccccccc" />
        <path
           style="color:#000000;font-style:normal;font-variant:normal;font-weight:normal;font-stretch:normal;font-size:medium;line-height:normal;font-family:sans-serif;font-variant-ligatures:normal;font-variant-position:normal;font-variant-caps:normal;font-variant-numeric:normal;font-variant-alternates:normal;font-variant-east-asian:normal;font-feature-settings:normal;font-variation-settings:normal;text-indent:0;text-align:start;text-decoration:none;text-decoration-line:none;text-decoration-style:solid;text-decoration-color:#000000;letter-spacing:normal;word-spacing:normal;text-transform:none;writing-mode:lr-tb;direction:ltr;text-orientation:mixed;dominant-baseline:auto;baseline-shift:baseline;text-anchor:start;white-space:normal;shape-padding:0;shape-margin:0;inline-size:0;clip-rule:nonzero;display:inline;overflow:visible;visibility:visible;opacity:1;isolation:auto;mix-blend-mode:normal;color-interpolation:sRGB;color-interpolation-filters:linearRGB;solid-color:#000000;solid-opacity:1;vector-effect:none;fill:#ff715b;fill-opacity:1;fill-rule:evenodd;stroke:none;stroke-width:0.264583;stroke-linecap:butt;stroke-linejoin:miter;stroke-miterlimit:4;stroke-dasharray:none;stroke-dashoffset:0;stroke-opacity:1;color-rendering:auto;image-rendering:auto;shape-rendering:auto;text-rendering:auto;enable-background:accumulate;stop-color:#000000;stop-opacity:1"
           d="m 134.03652,90.156184 v 0.132813 2.646484 h 14.50196 v -2.779297 z m 0.26367,0.265625 h 0.39779 13.57682 v 2.248047 h -11.97486 -1.99975 z"
           id="path30-10"
           sodipodi:nodetypes="ccccccccccccc" />
        <path
           style="color:#000000;font-style:normal;font-variant:normal;font-weight:normal;font-stretch:normal;font-size:medium;line-height:normal;font-family:sans-serif;font-variant-ligatures:normal;font-variant-position:normal;font-variant-caps:normal;font-variant-numeric:normal;font-variant-alternates:normal;font-variant-east-asian:normal;font-feature-settings:normal;font-variation-settings:normal;text-indent:0;text-align:start;text-decoration:none;text-decoration-line:none;text-decoration-style:solid;text-decoration-color:#000000;letter-spacing:normal;word-spacing:normal;text-transform:none;writing-mode:lr-tb;direction:ltr;text-orientation:mixed;dominant-baseline:auto;baseline-shift:baseline;text-anchor:start;white-space:normal;shape-padding:0;shape-margin:0;inline-size:0;clip-rule:nonzero;display:inline;overflow:visible;visibility:visible;opacity:1;isolation:auto;mix-blend-mode:normal;color-interpolation:sRGB;color-interpolation-filters:linearRGB;solid-color:#000000;solid-opacity:1;vector-effect:none;fill:#ff715b;fill-opacity:1;fill-rule:evenodd;stroke:none;stroke-width:0.231195;stroke-linecap:butt;stroke-linejoin:miter;stroke-miterlimit:4;stroke-dasharray:none;stroke-dashoffset:0;stroke-opacity:1;color-rendering:auto;image-rendering:auto;shape-rendering:auto;text-rendering:auto;enable-background:accumulate;stop-color:#000000;stop-opacity:1"
           d="m 135.80592,100.90488 v 0.12491 2.48903 h 11.77344 v -2.61394 z m 0.21406,0.24982 2.03169,-0.033 9.31362,0.033 v 2.1143 h -11.34531 z"
           id="path30-4"
           sodipodi:nodetypes="cccccccccccc" />
        <path
           style="fill:#ff715b;fill-opacity:1"
           d="m 191.46295,74.173674 c -0.50031,0.389677 -0.2253,1.099911 -0.29651,1.642578 0.011,2.456871 -0.0219,4.919585 0.0164,7.372817 0.0591,0.599583 0.75878,0.563773 1.2086,0.539659 17.375,0 34.75,0 52.125,0 0.53555,-0.01915 0.66482,-0.600786 0.59997,-1.037476 -0.011,-2.686037 0.0219,-5.377915 -0.0164,-8.060316 -0.0591,-0.599583 -0.75879,-0.563773 -1.2086,-0.539659 -17.375,0 -34.75,0 -52.125,0 -0.10116,0.02747 -0.20231,0.05493 -0.30347,0.0824 z"
           id="path1026"
           transform="matrix(0.26458334,0,0,0.26458334,70.82593,26.556597)" />
        <path
           style="fill:#ff715b;fill-opacity:1;stroke-width:0.353553"
           d="m 209.8426,92.874861 c -0.18342,2.925871 -0.33191,6.089881 0.076,8.976939 10.86253,0.32571 21.8313,0.0468 32.73477,0.13949 6.87184,-0.10097 13.83331,0.20122 20.64957,-0.1498 0.66691,-2.624958 0.0806,-5.766233 0.27982,-8.582001 -1.32009,-1.382397 -4.04889,-0.215545 -5.90337,-0.600074 -15.79206,0 -31.58411,0 -47.37616,0 l -0.32025,0.149801 z"
           id="path1028"
           transform="matrix(0.26458334,0,0,0.26458334,70.82593,26.556597)" />
        <path
           style="fill:#ff715b;fill-opacity:1;stroke-width:0.353553"
           d="m 241.6624,113.0274 c -0.18342,2.92588 -0.3319,6.08989 0.076,8.97695 10.92135,0.32624 21.9493,0.0459 32.91154,0.13948 6.69536,-0.0996 13.47937,0.19943 20.11924,-0.1498 0.66692,-2.62495 0.0806,-5.76623 0.27982,-8.582 -1.32009,-1.3824 -4.04889,-0.21554 -5.90337,-0.60007 -15.6742,0 -31.3484,0 -47.0226,0 l -0.32025,0.1498 z"
           id="path1030"
           transform="matrix(0.26458334,0,0,0.26458334,70.82593,26.556597)" />
        <path
           style="fill:#ff715b;fill-opacity:1;stroke-width:0.353553"
           d="m 273.12865,135.65482 c -0.18341,2.92587 -0.3319,6.08988 0.076,8.97694 10.92136,0.32624 21.9493,0.0459 32.91154,0.13949 6.69536,-0.0996 13.47937,0.19943 20.11924,-0.1498 0.66692,-2.62496 0.0806,-5.76623 0.27983,-8.582 -1.3201,-1.3824 -4.0489,-0.21555 -5.90338,-0.60008 -15.6742,0 -31.3484,0 -47.0226,0 l -0.32025,0.14981 z"
           id="path1032"
           transform="matrix(0.26458334,0,0,0.26458334,70.82593,26.556597)" />
        <path
           style="fill:#ff715b;fill-opacity:1;stroke-width:0.353553"
           d="m 245.19793,155.80736 c -0.18341,2.92588 -0.3319,6.08989 0.076,8.97695 10.86253,0.3257 21.8313,0.0468 32.73477,0.13948 6.87184,-0.10096 13.83331,0.20123 20.64956,-0.1498 0.66692,-2.62495 0.0806,-5.76623 0.27983,-8.582 -1.32009,-1.3824 -4.04889,-0.21554 -5.90338,-0.60007 -15.79205,0 -31.5841,0 -47.37615,0 l -0.32025,0.1498 z"
           id="path1034"
           transform="matrix(0.26458334,0,0,0.26458334,70.82593,26.556597)" />
        <path
           style="fill:#ff715b;fill-opacity:1;stroke-width:0.353553"
           d="m 211.61036,177.72767 c -0.18341,2.92588 -0.3319,6.08989 0.076,8.97695 10.86252,0.3257 21.8313,0.0468 32.73476,0.13948 6.87185,-0.10096 13.83332,0.20123 20.64957,-0.1498 0.66692,-2.62495 0.0806,-5.76623 0.27983,-8.582 -1.32009,-1.38239 -4.04889,-0.21554 -5.90338,-0.60007 -15.79205,0 -31.5841,0 -47.37615,0 l -0.32025,0.1498 z"
           id="path1036"
           transform="matrix(0.26458334,0,0,0.26458334,70.82593,26.556597)" />
        <path
           style="fill:#ff715b;fill-opacity:1;stroke-width:0.353553"
           d="m 195.34691,199.29443 c -0.18342,2.92587 -0.33191,6.08988 0.076,8.97694 10.92135,0.32624 21.94929,0.0459 32.91153,0.13949 6.69537,-0.0996 13.47937,0.19943 20.11924,-0.1498 0.66692,-2.62496 0.0806,-5.76623 0.27983,-8.582 -1.32009,-1.3824 -4.04889,-0.21555 -5.90338,-0.60007 -15.6742,0 -31.3484,0 -47.0226,0 l -0.32025,0.1498 z"
           id="path1038"
           transform="matrix(0.26458334,0,0,0.26458334,70.82593,26.556597)" />
        <path
           style="fill:#ff715b;fill-opacity:1;stroke-width:0.353553"
           d="m 208.42838,219.09342 c -0.18341,2.92587 -0.3319,6.08988 0.076,8.97694 10.92135,0.32624 21.9493,0.0459 32.91154,0.13949 6.69536,-0.0996 13.47937,0.19943 20.11924,-0.1498 0.66692,-2.62496 0.0806,-5.76623 0.27983,-8.582 -1.3201,-1.3824 -4.0489,-0.21555 -5.90338,-0.60008 -15.6742,0 -31.3484,0 -47.0226,0 l -0.32025,0.14981 z"
           id="path1040"
           transform="matrix(0.26458334,0,0,0.26458334,70.82593,26.556597)" />
        <path
           style="fill:#ff715b;fill-opacity:1;stroke-width:0.353553"
           d="m 239.54108,241.01373 c -0.19383,3.04537 -0.32223,6.32353 0.076,9.3305 10.86252,0.3257 21.8313,0.0468 32.73476,0.13948 6.87185,-0.10096 13.83332,0.20123 20.64957,-0.1498 0.66793,-2.62454 0.0826,-5.76539 0.27983,-8.582 -0.57061,-2.02959 -3.87506,-0.46081 -5.54983,-0.95362 -15.9099,0 -31.8198,0 -47.7297,0 l -0.32025,0.1498 z"
           id="path1042"
           transform="matrix(0.26458334,0,0,0.26458334,70.82593,26.556597)" />
        <path
           style="fill:#ff715b;fill-opacity:1;stroke-width:0.353553"
           d="m 246.25859,281.67237 c -0.19551,2.80978 -0.32055,5.85194 0.076,8.62339 10.92136,0.32624 21.9493,0.0459 32.91154,0.13949 3.43822,-0.13993 7.00141,0.28227 10.36008,-0.21545 0.19552,-2.80978 0.32056,-5.85194 -0.076,-8.62339 -10.92135,-0.32624 -21.94929,-0.0459 -32.91153,-0.13949 -3.43184,0.14004 -7.01073,-0.28236 -10.36009,0.21545 z"
           id="path1044"
           transform="matrix(0.26458334,0,0,0.26458334,70.82593,26.556597)" />
        <path
           id="path1044-4"
           d="m 136.37219,95.58409 c -0.0517,0.74342 -0.0848,1.54833 0.0201,2.28161 2.88961,0.0863 5.80742,0.0121 8.70784,0.0369 0.9097,-0.037 1.85246,0.0747 2.74111,-0.057 0.0517,-0.74342 0.0848,-1.54833 -0.0201,-2.28161 -2.88961,-0.0863 -5.80742,-0.0122 -8.70785,-0.0369 -0.908,0.0371 -1.85492,-0.0747 -2.7411,0.057 z"
           style="display:inline;opacity:1;fill:#ff715b;fill-opacity:1;stroke-width:0.0935442" />
      </g>
      <path
         style="fill:#4c5454;fill-opacity:1;stroke:#4c5454;stroke-width:0.00992188;stroke-miterlimit:4;stroke-dasharray:none;stroke-opacity:1"
         d="m 149.49859,56.033368 c -0.12329,0.222609 -0.0262,0.503538 -0.057,0.750277 0.008,0.516816 -0.0152,1.038946 0.0113,1.552447 0.0845,0.226575 0.3923,0.0908 0.57745,0.127683 7.87136,0 15.74271,0 23.61407,0 0.26403,-0.06111 0.12382,-0.396029 0.15877,-0.588724 -0.008,-0.582951 0.0152,-1.17124 -0.0113,-1.750884 -0.0845,-0.226575 -0.39229,-0.0908 -0.57745,-0.127683 -7.87135,0 -15.74271,0 -23.61406,0 -0.0339,0.01229 -0.0678,0.02459 -0.10174,0.03688 z"
         id="path1087" />
      <path
         style="fill:#4c5454;fill-opacity:1;stroke:#4c5454;stroke-width:0.0198438;stroke-miterlimit:4;stroke-dasharray:none;stroke-opacity:1"
         d="m 173.72988,56.108897 c -0.0971,0.703683 -0.0143,1.441241 -0.042,2.158007 0.22712,0.332464 0.78679,0.07996 1.15096,0.158776 7.60678,0 15.21355,0 22.82032,0 0.33246,-0.227122 0.08,-0.786788 0.15877,-1.150963 -0.0321,-0.38856 0.0657,-0.804385 -0.0513,-1.175122 -1.05636,-0.09766 -2.14682,-0.01423 -3.21635,-0.04199 -6.90121,0 -13.80243,0 -20.70364,0 l -0.0606,0.0266 z"
         id="path1089" />
      <path
         style="fill:#4c5454;fill-opacity:1;stroke:#4c5454;stroke-width:0.0198438;stroke-miterlimit:4;stroke-dasharray:none;stroke-opacity:1"
         d="m 154.77148,60.9487 c -0.0973,0.725699 -0.0145,1.485305 -0.042,2.224153 0.22712,0.332465 0.78678,0.07995 1.15096,0.158777 15.67656,0 31.35313,0 47.02969,0 0.33246,-0.227124 0.08,-0.786789 0.15877,-1.150964 -0.0302,-0.410996 0.063,-0.847908 -0.0513,-1.241268 -1.05635,-0.09766 -2.14681,-0.01423 -3.21634,-0.04199 -14.971,0 -29.94201,0 -44.91302,0 l -0.0606,0.0266 z"
         id="path1095" />
      <path
         style="fill:#4c5454;fill-opacity:1;stroke:#4c5454;stroke-width:0.0198438;stroke-miterlimit:4;stroke-dasharray:none;stroke-opacity:1"
         d="m 163.23815,66.438804 c -0.0973,0.725699 -0.0145,1.485305 -0.042,2.224153 0.22713,0.332465 0.78679,0.07995 1.15097,0.158777 20.17448,0 40.34895,0 60.52343,0 0.33247,-0.227124 0.08,-0.786789 0.15878,-1.150964 -0.0302,-0.410996 0.063,-0.847908 -0.0513,-1.241269 -1.05635,-0.09766 -2.14682,-0.01423 -3.21634,-0.04199 -19.46892,0 -38.93785,0 -58.40677,0 l -0.0606,0.0266 z"
         id="path1097" />
      <path
         style="fill:#4c5454;fill-opacity:1;stroke:#4c5454;stroke-width:0.0198438;stroke-miterlimit:4;stroke-dasharray:none;stroke-opacity:1"
         d="m 171.50638,72.259637 c -0.0973,0.725699 -0.0145,1.485305 -0.042,2.224154 0.22712,0.332465 0.78679,0.07995 1.15097,0.158776 15.69861,0 31.39722,0 47.09583,0 0.33246,-0.227123 0.08,-0.786788 0.15878,-1.150964 -0.0302,-0.410995 0.063,-0.847907 -0.0513,-1.241268 -1.05636,-0.09766 -2.14682,-0.01424 -3.21634,-0.04199 -14.99306,0 -29.98612,0 -44.97917,0 l -0.0606,0.0266 z"
         id="path1099" />
      <path
         style="fill:#4c5454;fill-opacity:1;stroke:#4c5454;stroke-width:0.0198438;stroke-miterlimit:4;stroke-dasharray:none;stroke-opacity:1"
         d="m 164.16419,77.61745 c -0.0973,0.725699 -0.0145,1.485305 -0.042,2.224154 0.22712,0.332464 0.78678,0.07995 1.15096,0.158776 15.69861,0 31.39722,0 47.09583,0 0.33247,-0.227124 0.08,-0.786789 0.15878,-1.150964 -0.0302,-0.410996 0.063,-0.847908 -0.0513,-1.241269 -1.05635,-0.09766 -2.14682,-0.01423 -3.21634,-0.04199 -14.99306,0 -29.98611,0 -44.97917,0 l -0.0606,0.0266 z"
         id="path1101" />
      <path
         style="fill:#4c5454;fill-opacity:1;stroke:#4c5454;stroke-width:0.0198438;stroke-miterlimit:4;stroke-dasharray:none;stroke-opacity:1"
         d="m 155.3668,83.372138 c -0.0973,0.725699 -0.0145,1.485304 -0.042,2.224153 0.22712,0.332462 0.78679,0.07996 1.15096,0.158777 16.6467,0 33.29341,0 49.94011,0 0.33246,-0.227124 0.08,-0.786789 0.15877,-1.150964 -0.0302,-0.410996 0.063,-0.847908 -0.0513,-1.241269 -1.05635,-0.09766 -2.14682,-0.01423 -3.21634,-0.04199 -15.94114,0 -31.88229,0 -47.82343,0 l -0.0606,0.0266 z"
         id="path1103" />
      <path
         style="fill:#4c5454;fill-opacity:1;stroke:#4c5454;stroke-width:0.0198438;stroke-miterlimit:4;stroke-dasharray:none;stroke-opacity:1"
         d="m 150.6043,88.994534 c -0.0973,0.725699 -0.0145,1.485304 -0.042,2.224153 0.22712,0.332462 0.78679,0.07995 1.15096,0.158777 15.69861,0 31.39722,0 47.09584,0 0.33246,-0.227124 0.0799,-0.786789 0.15877,-1.150964 -0.0302,-0.410996 0.063,-0.847908 -0.0513,-1.241269 -1.05635,-0.09766 -2.14682,-0.01423 -3.21634,-0.04199 -14.99305,0 -29.98611,0 -44.97916,0 l -0.0606,0.0266 z"
         id="path1105" />
      <path
         style="fill:#4c5454;fill-opacity:1;stroke:#4c5454;stroke-width:0.0198438;stroke-miterlimit:4;stroke-dasharray:none;stroke-opacity:1"
         d="m 155.82982,94.153909 c -0.0973,0.725699 -0.0145,1.485304 -0.042,2.224153 0.22712,0.332463 0.78679,0.07995 1.15096,0.158777 15.69862,0 31.39723,0 47.09584,0 0.33246,-0.227124 0.0799,-0.786789 0.15877,-1.150964 -0.0302,-0.410996 0.063,-0.847908 -0.0513,-1.241269 -1.05635,-0.09766 -2.14682,-0.01423 -3.21634,-0.04199 -14.99305,0 -29.98611,0 -44.97916,0 l -0.0606,0.0266 z"
         id="path1107" />
      <path
         style="fill:#f7f7ff;fill-opacity:1;stroke-width:0.264583"
         d="m 119.14623,110.96862 c -0.12329,0.22261 -0.0262,0.50354 -0.057,0.75028 0.0146,0.47148 -0.0295,0.95328 0.0225,1.41818 0.11399,0.18171 0.3845,0.0622 0.56618,0.0966 1.70877,0 3.41753,0 5.1263,0 0.26403,-0.0611 0.12382,-0.39603 0.15878,-0.58872 -0.007,-0.52786 0.015,-1.06097 -0.0113,-1.58553 -0.0845,-0.22657 -0.39229,-0.0908 -0.57745,-0.12768 -1.70877,0 -3.41753,0 -5.1263,0 -0.0339,0.0123 -0.0678,0.0246 -0.10174,0.0369 z"
         id="path1113" />
      <path
         style="fill:#f7f7ff;fill-opacity:1;stroke-width:0.0330729"
         d="m 119.24545,105.64388 c -0.12329,0.22261 -0.0262,0.50354 -0.057,0.75028 0.0146,0.47148 -0.0295,0.95328 0.0225,1.41818 0.11399,0.18171 0.3845,0.0622 0.56618,0.0966 1.70876,0 3.41753,0 5.1263,0 0.26403,-0.0611 0.12382,-0.39603 0.15877,-0.58872 -0.007,-0.52786 0.015,-1.06097 -0.0113,-1.58553 -0.0845,-0.22657 -0.39229,-0.0908 -0.57745,-0.12768 -1.70877,0 -3.41753,0 -5.1263,0 -0.0339,0.0123 -0.0678,0.0246 -0.10174,0.0369 z"
         id="path1115" />
      <path
         style="fill:#f7f7ff;fill-opacity:1;stroke-width:0.0330729"
         d="m 119.08009,99.756905 c -0.1233,0.22261 -0.0262,0.503535 -0.057,0.750275 0.0146,0.47148 -0.0295,0.95328 0.0225,1.41818 0.11399,0.18171 0.3845,0.0622 0.56618,0.0966 1.70877,0 3.41754,0 5.1263,0 0.26403,-0.0611 0.12382,-0.39603 0.15878,-0.58872 -0.007,-0.52786 0.015,-1.06097 -0.0113,-1.585525 -0.0845,-0.226576 -0.39229,-0.09081 -0.57745,-0.127683 -1.70877,0 -3.41754,0 -5.12631,0 -0.0339,0.0123 -0.0678,0.02458 -0.10173,0.03688 z"
         id="path1117" />
      <path
         style="fill:#f7f7ff;fill-opacity:1;stroke-width:0.0330729"
         d="m 119.11316,94.36602 c -0.12329,0.22261 -0.0262,0.503539 -0.057,0.750279 0.0146,0.471474 -0.0295,0.953275 0.0225,1.418174 0.114,0.181716 0.38451,0.06225 0.56618,0.09659 1.70877,0 3.41754,0 5.12631,0 0.26402,-0.06111 0.12381,-0.396028 0.15877,-0.588722 -0.007,-0.527851 0.015,-1.060968 -0.0113,-1.58552 -0.0845,-0.226576 -0.39229,-0.0908 -0.57745,-0.127683 -1.70877,0 -3.41753,0 -5.1263,0 -0.0339,0.0123 -0.0678,0.02458 -0.10174,0.03688 z"
         id="path1119" />
      <path
         style="fill:#f7f7ff;fill-opacity:1;stroke-width:0.0330729"
         d="m 119.1793,88.975134 c -0.12329,0.22261 -0.0262,0.503539 -0.057,0.750279 0.0146,0.471475 -0.0295,0.953276 0.0225,1.418175 0.11399,0.181716 0.3845,0.06225 0.56618,0.09659 1.70877,0 3.41754,0 5.1263,0 0.26403,-0.06111 0.12382,-0.396029 0.15878,-0.588722 -0.007,-0.527852 0.015,-1.060969 -0.0113,-1.585521 -0.0845,-0.226576 -0.3923,-0.09081 -0.57746,-0.127683 -1.70876,0 -3.41753,0 -5.1263,0 -0.0339,0.0123 -0.0678,0.02458 -0.10174,0.03688 z"
         id="path1121" />
      <path
         style="fill:#f7f7ff;fill-opacity:1;stroke-width:0.0330729"
         d="m 119.1793,83.584249 c -0.12329,0.22261 -0.0262,0.503539 -0.057,0.750279 0.0146,0.471474 -0.0295,0.953275 0.0225,1.418174 0.11399,0.181716 0.3845,0.06225 0.56618,0.09659 1.70877,0 3.41754,0 5.1263,0 0.26403,-0.06111 0.12382,-0.396028 0.15878,-0.588722 -0.007,-0.527851 0.015,-1.060968 -0.0113,-1.585521 -0.0845,-0.226576 -0.3923,-0.09081 -0.57746,-0.127682 -1.70876,0 -3.41753,0 -5.1263,0 -0.0339,0.0123 -0.0678,0.02458 -0.10174,0.03688 z"
         id="path1123" />
      <path
         style="fill:#f7f7ff;fill-opacity:1;stroke-width:0.0330729"
         d="m 119.01394,77.730342 c -0.12329,0.22261 -0.0262,0.503539 -0.057,0.750279 0.0146,0.471475 -0.0295,0.953276 0.0225,1.418175 0.11399,0.181716 0.3845,0.06225 0.56618,0.09659 1.70876,0 3.41753,0 5.1263,0 0.26403,-0.06111 0.12381,-0.396029 0.15877,-0.588722 -0.007,-0.527852 0.015,-1.060969 -0.0113,-1.585521 -0.0845,-0.226576 -0.39229,-0.0908 -0.57745,-0.127683 -1.70877,0 -3.41753,0 -5.1263,0 -0.0339,0.0123 -0.0678,0.02458 -0.10174,0.03688 z"
         id="path1125" />
      <path
         style="fill:#f7f7ff;fill-opacity:1;stroke-width:0.0330729"
         d="m 119.14623,72.306384 c -0.12329,0.22261 -0.0262,0.503539 -0.057,0.750279 0.0146,0.471474 -0.0295,0.953275 0.0225,1.418174 0.11399,0.181716 0.3845,0.06225 0.56618,0.09659 1.70877,0 3.41753,0 5.1263,0 0.26403,-0.06111 0.12382,-0.396028 0.15878,-0.588721 -0.007,-0.527852 0.015,-1.060969 -0.0113,-1.585521 -0.0845,-0.226576 -0.39229,-0.0908 -0.57745,-0.127683 -1.70877,0 -3.41753,0 -5.1263,0 -0.0339,0.0123 -0.0678,0.02458 -0.10174,0.03688 z"
         id="path1127" />
      <path
         style="fill:#f7f7ff;fill-opacity:1;stroke-width:0.0330729"
         d="m 119.24545,66.915498 c -0.12329,0.22261 -0.0262,0.503539 -0.057,0.750279 0.0146,0.471475 -0.0295,0.953276 0.0225,1.418175 0.11399,0.181716 0.3845,0.06225 0.56618,0.09659 1.70876,0 3.41753,0 5.1263,0 0.26403,-0.06111 0.12382,-0.396029 0.15877,-0.588722 -0.007,-0.527852 0.015,-1.060969 -0.0113,-1.585521 -0.0845,-0.226576 -0.39229,-0.0908 -0.57745,-0.127683 -1.70877,0 -3.41753,0 -5.1263,0 -0.0339,0.0123 -0.0678,0.02458 -0.10174,0.03688 z"
         id="path1129" />
      <path
         style="fill:#f7f7ff;fill-opacity:1;stroke-width:0.0330729"
         d="m 119.11316,61.02852 c -0.12329,0.222609 -0.0262,0.503539 -0.057,0.750277 0.0146,0.471475 -0.0295,0.953277 0.0225,1.418176 0.114,0.181715 0.38451,0.06224 0.56618,0.09659 1.70877,0 3.41754,0 5.12631,0 0.26402,-0.06111 0.12381,-0.396028 0.15877,-0.588722 -0.007,-0.527851 0.015,-1.060968 -0.0113,-1.58552 -0.0845,-0.226575 -0.39229,-0.0908 -0.57745,-0.127683 -1.70877,0 -3.41753,0 -5.1263,0 -0.0339,0.0123 -0.0678,0.02459 -0.10174,0.03688 z"
         id="path1131" />
      <path
         style="fill:#f7f7ff;fill-opacity:1;stroke-width:0.0330729"
         d="m 119.14623,56.166801 c -0.12329,0.222609 -0.0262,0.503539 -0.057,0.750277 0.0146,0.471475 -0.0295,0.953277 0.0225,1.418175 0.11399,0.181717 0.3845,0.06225 0.56618,0.09659 1.70877,0 3.41753,0 5.1263,0 0.26403,-0.06111 0.12382,-0.396029 0.15878,-0.588724 -0.007,-0.527851 0.015,-1.060968 -0.0113,-1.58552 -0.0845,-0.226575 -0.39229,-0.0908 -0.57745,-0.127683 -1.70877,0 -3.41753,0 -5.1263,0 -0.0339,0.0123 -0.0678,0.02459 -0.10174,0.03688 z"
         id="path1133" />
      <path
         style="display:inline;opacity:0.998;fill:#4c5454;fill-opacity:1;stroke:#4c5454;stroke-width:0.0198438;stroke-miterlimit:4;stroke-dasharray:none;stroke-opacity:1;filter:url(#filter989-7)"
         d="m 163.97484,110.91728 c -0.0973,0.7257 -0.0145,1.4853 -0.042,2.22415 0.22712,0.33246 0.78679,0.08 1.15097,0.15878 15.69861,0 31.39722,0 47.09583,0 0.33246,-0.22713 0.08,-0.78679 0.15878,-1.15097 -0.0302,-0.41099 0.063,-0.8479 -0.0513,-1.24126 -1.05636,-0.0977 -2.14682,-0.0142 -3.21634,-0.042 -14.99306,0 -29.98612,0 -44.97917,0 l -0.0606,0.0266 z"
         id="path1107-8-8" />
    </g>
  </g>
</svg>
